solid OpenSCAD_Model
  facet normal 0.982288 0.187379 0
    outer loop
      vertex 3.17477 0.401066 2.5
      vertex 3.09947 0.795807 0
      vertex 3.09947 0.795807 2.5
    endloop
  endfacet
  facet normal 0.982288 0.187379 0
    outer loop
      vertex 3.09947 0.795807 0
      vertex 3.17477 0.401066 2.5
      vertex 3.17477 0.401066 0
    endloop
  endfacet
  facet normal 0.998027 0.0627832 0
    outer loop
      vertex 3.2 0 2.5
      vertex 3.17477 0.401066 0
      vertex 3.17477 0.401066 2.5
    endloop
  endfacet
  facet normal 0.998027 0.0627832 0
    outer loop
      vertex 3.17477 0.401066 0
      vertex 3.2 0 2.5
      vertex 3.2 0 0
    endloop
  endfacet
  facet normal 0.951051 0.309035 0
    outer loop
      vertex 3.09947 0.795807 2.5
      vertex 2.97528 1.178 0
      vertex 2.97528 1.178 2.5
    endloop
  endfacet
  facet normal 0.951051 0.309035 0
    outer loop
      vertex 2.97528 1.178 0
      vertex 3.09947 0.795807 2.5
      vertex 3.09947 0.795807 0
    endloop
  endfacet
  facet normal 0.844324 0.535833 0
    outer loop
      vertex 2.80418 1.54161 2.5
      vertex 2.58885 1.88091 0
      vertex 2.58885 1.88091 2.5
    endloop
  endfacet
  facet normal 0.844324 0.535833 0
    outer loop
      vertex 2.58885 1.88091 0
      vertex 2.80418 1.54161 2.5
      vertex 2.80418 1.54161 0
    endloop
  endfacet
  facet normal -0.248694 0.968582 0
    outer loop
      vertex -0.59962 3.14332 0
      vertex -0.988853 3.04338 2.5
      vertex -0.59962 3.14332 2.5
    endloop
  endfacet
  facet normal -0.248694 0.968582 0
    outer loop
      vertex -0.988853 3.04338 2.5
      vertex -0.59962 3.14332 0
      vertex -0.988853 3.04338 0
    endloop
  endfacet
  facet normal 0.368117 -0.929779 0
    outer loop
      vertex 0.988853 -3.04338 0
      vertex 1.36249 -2.89545 2.5
      vertex 0.988853 -3.04338 2.5
    endloop
  endfacet
  facet normal 0.368117 -0.929779 0
    outer loop
      vertex 1.36249 -2.89545 2.5
      vertex 0.988853 -3.04338 0
      vertex 1.36249 -2.89545 0
    endloop
  endfacet
  facet normal -0.998027 0.0627832 0
    outer loop
      vertex -3.2 0 0
      vertex -3.17477 0.401066 2.5
      vertex -3.17477 0.401066 0
    endloop
  endfacet
  facet normal -0.998027 0.0627832 0
    outer loop
      vertex -3.17477 0.401066 2.5
      vertex -3.2 0 0
      vertex -3.2 0 2.5
    endloop
  endfacet
  facet normal -0.998027 -0.0627832 0
    outer loop
      vertex -3.17477 -0.401066 0
      vertex -3.2 0 2.5
      vertex -3.2 0 0
    endloop
  endfacet
  facet normal -0.998027 -0.0627832 0
    outer loop
      vertex -3.2 0 2.5
      vertex -3.17477 -0.401066 0
      vertex -3.17477 -0.401066 2.5
    endloop
  endfacet
  facet normal -0.587791 0.809013 0
    outer loop
      vertex -1.71465 2.70185 0
      vertex -2.03976 2.46564 2.5
      vertex -1.71465 2.70185 2.5
    endloop
  endfacet
  facet normal -0.587791 0.809013 0
    outer loop
      vertex -2.03976 2.46564 2.5
      vertex -1.71465 2.70185 0
      vertex -2.03976 2.46564 0
    endloop
  endfacet
  facet normal 0 1 -0
    outer loop
      vertex 0.20093 3.19368 0
      vertex -0.20093 3.19368 2.5
      vertex 0.20093 3.19368 2.5
    endloop
  endfacet
  facet normal 0 1 0
    outer loop
      vertex -0.20093 3.19368 2.5
      vertex 0.20093 3.19368 0
      vertex -0.20093 3.19368 0
    endloop
  endfacet
  facet normal 0.684548 0.728967 -0
    outer loop
      vertex 2.3327 2.19055 0
      vertex 2.03976 2.46564 2.5
      vertex 2.3327 2.19055 2.5
    endloop
  endfacet
  facet normal 0.684548 0.728967 0
    outer loop
      vertex 2.03976 2.46564 2.5
      vertex 2.3327 2.19055 0
      vertex 2.03976 2.46564 0
    endloop
  endfacet
  facet normal 0.904829 0.425775 0
    outer loop
      vertex 2.97528 1.178 2.5
      vertex 2.80418 1.54161 0
      vertex 2.80418 1.54161 2.5
    endloop
  endfacet
  facet normal 0.904829 0.425775 0
    outer loop
      vertex 2.80418 1.54161 0
      vertex 2.97528 1.178 2.5
      vertex 2.97528 1.178 0
    endloop
  endfacet
  facet normal -0.125318 0.992117 0
    outer loop
      vertex -0.20093 3.19368 0
      vertex -0.59962 3.14332 2.5
      vertex -0.20093 3.19368 2.5
    endloop
  endfacet
  facet normal -0.125318 0.992117 0
    outer loop
      vertex -0.59962 3.14332 2.5
      vertex -0.20093 3.19368 0
      vertex -0.59962 3.14332 0
    endloop
  endfacet
  facet normal -0.982288 0.187379 0
    outer loop
      vertex -3.17477 0.401066 0
      vertex -3.09947 0.795807 2.5
      vertex -3.09947 0.795807 0
    endloop
  endfacet
  facet normal -0.982288 0.187379 0
    outer loop
      vertex -3.09947 0.795807 2.5
      vertex -3.17477 0.401066 0
      vertex -3.17477 0.401066 2.5
    endloop
  endfacet
  facet normal -0.951051 0.309035 0
    outer loop
      vertex -3.09947 0.795807 0
      vertex -2.97528 1.178 2.5
      vertex -2.97528 1.178 0
    endloop
  endfacet
  facet normal -0.951051 0.309035 0
    outer loop
      vertex -2.97528 1.178 2.5
      vertex -3.09947 0.795807 0
      vertex -3.09947 0.795807 2.5
    endloop
  endfacet
  facet normal -0.844324 0.535833 0
    outer loop
      vertex -2.80418 1.54161 0
      vertex -2.58885 1.88091 2.5
      vertex -2.58885 1.88091 0
    endloop
  endfacet
  facet normal -0.844324 0.535833 0
    outer loop
      vertex -2.58885 1.88091 2.5
      vertex -2.80418 1.54161 0
      vertex -2.80418 1.54161 2.5
    endloop
  endfacet
  facet normal 0 -1 0
    outer loop
      vertex -0.20093 -3.19368 0
      vertex 0.20093 -3.19368 2.5
      vertex -0.20093 -3.19368 2.5
    endloop
  endfacet
  facet normal 0 -1 -0
    outer loop
      vertex 0.20093 -3.19368 2.5
      vertex -0.20093 -3.19368 0
      vertex 0.20093 -3.19368 0
    endloop
  endfacet
  facet normal 0.587791 -0.809013 0
    outer loop
      vertex 1.71465 -2.70185 0
      vertex 2.03976 -2.46564 2.5
      vertex 1.71465 -2.70185 2.5
    endloop
  endfacet
  facet normal 0.587791 -0.809013 0
    outer loop
      vertex 2.03976 -2.46564 2.5
      vertex 1.71465 -2.70185 0
      vertex 2.03976 -2.46564 0
    endloop
  endfacet
  facet normal 0.587791 0.809013 -0
    outer loop
      vertex 2.03976 2.46564 0
      vertex 1.71465 2.70185 2.5
      vertex 2.03976 2.46564 2.5
    endloop
  endfacet
  facet normal 0.587791 0.809013 0
    outer loop
      vertex 1.71465 2.70185 2.5
      vertex 2.03976 2.46564 0
      vertex 1.71465 2.70185 0
    endloop
  endfacet
  facet normal 0.248694 0.968582 -0
    outer loop
      vertex 0.988853 3.04338 0
      vertex 0.59962 3.14332 2.5
      vertex 0.988853 3.04338 2.5
    endloop
  endfacet
  facet normal 0.248694 0.968582 0
    outer loop
      vertex 0.59962 3.14332 2.5
      vertex 0.988853 3.04338 0
      vertex 0.59962 3.14332 0
    endloop
  endfacet
  facet normal -0.904829 -0.425775 0
    outer loop
      vertex -2.80418 -1.54161 0
      vertex -2.97528 -1.178 2.5
      vertex -2.97528 -1.178 0
    endloop
  endfacet
  facet normal -0.904829 -0.425775 0
    outer loop
      vertex -2.97528 -1.178 2.5
      vertex -2.80418 -1.54161 0
      vertex -2.80418 -1.54161 2.5
    endloop
  endfacet
  facet normal -0.684548 0.728967 0
    outer loop
      vertex -2.03976 2.46564 0
      vertex -2.3327 2.19055 2.5
      vertex -2.03976 2.46564 2.5
    endloop
  endfacet
  facet normal -0.684548 0.728967 0
    outer loop
      vertex -2.3327 2.19055 2.5
      vertex -2.03976 2.46564 0
      vertex -2.3327 2.19055 0
    endloop
  endfacet
  facet normal -0.368117 0.929779 0
    outer loop
      vertex -0.988853 3.04338 0
      vertex -1.36249 2.89545 2.5
      vertex -0.988853 3.04338 2.5
    endloop
  endfacet
  facet normal -0.368117 0.929779 0
    outer loop
      vertex -1.36249 2.89545 2.5
      vertex -0.988853 3.04338 0
      vertex -1.36249 2.89545 0
    endloop
  endfacet
  facet normal 0.844324 -0.535833 0
    outer loop
      vertex 2.58885 -1.88091 2.5
      vertex 2.80418 -1.54161 0
      vertex 2.80418 -1.54161 2.5
    endloop
  endfacet
  facet normal 0.844324 -0.535833 0
    outer loop
      vertex 2.80418 -1.54161 0
      vertex 2.58885 -1.88091 2.5
      vertex 2.58885 -1.88091 0
    endloop
  endfacet
  facet normal 0.951051 -0.309035 0
    outer loop
      vertex 2.97528 -1.178 2.5
      vertex 3.09947 -0.795807 0
      vertex 3.09947 -0.795807 2.5
    endloop
  endfacet
  facet normal 0.951051 -0.309035 0
    outer loop
      vertex 3.09947 -0.795807 0
      vertex 2.97528 -1.178 2.5
      vertex 2.97528 -1.178 0
    endloop
  endfacet
  facet normal 0.998027 -0.0627832 0
    outer loop
      vertex 3.17477 -0.401066 2.5
      vertex 3.2 0 0
      vertex 3.2 0 2.5
    endloop
  endfacet
  facet normal 0.998027 -0.0627832 0
    outer loop
      vertex 3.2 0 0
      vertex 3.17477 -0.401066 2.5
      vertex 3.17477 -0.401066 0
    endloop
  endfacet
  facet normal -0.770521 -0.637414 0
    outer loop
      vertex -2.3327 -2.19055 0
      vertex -2.58885 -1.88091 2.5
      vertex -2.58885 -1.88091 0
    endloop
  endfacet
  facet normal -0.770521 -0.637414 0
    outer loop
      vertex -2.58885 -1.88091 2.5
      vertex -2.3327 -2.19055 0
      vertex -2.3327 -2.19055 2.5
    endloop
  endfacet
  facet normal 0.481751 -0.876308 0
    outer loop
      vertex 1.36249 -2.89545 0
      vertex 1.71465 -2.70185 2.5
      vertex 1.36249 -2.89545 2.5
    endloop
  endfacet
  facet normal 0.481751 -0.876308 0
    outer loop
      vertex 1.71465 -2.70185 2.5
      vertex 1.36249 -2.89545 0
      vertex 1.71465 -2.70185 0
    endloop
  endfacet
  facet normal 0.481751 0.876308 -0
    outer loop
      vertex 1.71465 2.70185 0
      vertex 1.36249 2.89545 2.5
      vertex 1.71465 2.70185 2.5
    endloop
  endfacet
  facet normal 0.481751 0.876308 0
    outer loop
      vertex 1.36249 2.89545 2.5
      vertex 1.71465 2.70185 0
      vertex 1.36249 2.89545 0
    endloop
  endfacet
  facet normal -0.481751 0.876308 0
    outer loop
      vertex -1.36249 2.89545 0
      vertex -1.71465 2.70185 2.5
      vertex -1.36249 2.89545 2.5
    endloop
  endfacet
  facet normal -0.481751 0.876308 0
    outer loop
      vertex -1.71465 2.70185 2.5
      vertex -1.36249 2.89545 0
      vertex -1.71465 2.70185 0
    endloop
  endfacet
  facet normal 0.368117 0.929779 -0
    outer loop
      vertex 1.36249 2.89545 0
      vertex 0.988853 3.04338 2.5
      vertex 1.36249 2.89545 2.5
    endloop
  endfacet
  facet normal 0.368117 0.929779 0
    outer loop
      vertex 0.988853 3.04338 2.5
      vertex 1.36249 2.89545 0
      vertex 0.988853 3.04338 0
    endloop
  endfacet
  facet normal 0.684548 -0.728967 0
    outer loop
      vertex 2.03976 -2.46564 0
      vertex 2.3327 -2.19055 2.5
      vertex 2.03976 -2.46564 2.5
    endloop
  endfacet
  facet normal 0.684548 -0.728967 0
    outer loop
      vertex 2.3327 -2.19055 2.5
      vertex 2.03976 -2.46564 0
      vertex 2.3327 -2.19055 0
    endloop
  endfacet
  facet normal -0.684548 -0.728967 0
    outer loop
      vertex -2.3327 -2.19055 0
      vertex -2.03976 -2.46564 2.5
      vertex -2.3327 -2.19055 2.5
    endloop
  endfacet
  facet normal -0.684548 -0.728967 -0
    outer loop
      vertex -2.03976 -2.46564 2.5
      vertex -2.3327 -2.19055 0
      vertex -2.03976 -2.46564 0
    endloop
  endfacet
  facet normal 0.125318 -0.992117 0
    outer loop
      vertex 0.20093 -3.19368 0
      vertex 0.59962 -3.14332 2.5
      vertex 0.20093 -3.19368 2.5
    endloop
  endfacet
  facet normal 0.125318 -0.992117 0
    outer loop
      vertex 0.59962 -3.14332 2.5
      vertex 0.20093 -3.19368 0
      vertex 0.59962 -3.14332 0
    endloop
  endfacet
  facet normal 0.904829 -0.425775 0
    outer loop
      vertex 2.80418 -1.54161 2.5
      vertex 2.97528 -1.178 0
      vertex 2.97528 -1.178 2.5
    endloop
  endfacet
  facet normal 0.904829 -0.425775 0
    outer loop
      vertex 2.97528 -1.178 0
      vertex 2.80418 -1.54161 2.5
      vertex 2.80418 -1.54161 0
    endloop
  endfacet
  facet normal -0.844324 -0.535833 0
    outer loop
      vertex -2.58885 -1.88091 0
      vertex -2.80418 -1.54161 2.5
      vertex -2.80418 -1.54161 0
    endloop
  endfacet
  facet normal -0.844324 -0.535833 0
    outer loop
      vertex -2.80418 -1.54161 2.5
      vertex -2.58885 -1.88091 0
      vertex -2.58885 -1.88091 2.5
    endloop
  endfacet
  facet normal -0.982288 -0.187379 0
    outer loop
      vertex -3.09947 -0.795807 0
      vertex -3.17477 -0.401066 2.5
      vertex -3.17477 -0.401066 0
    endloop
  endfacet
  facet normal -0.982288 -0.187379 0
    outer loop
      vertex -3.17477 -0.401066 2.5
      vertex -3.09947 -0.795807 0
      vertex -3.09947 -0.795807 2.5
    endloop
  endfacet
  facet normal 0.248694 -0.968582 0
    outer loop
      vertex 0.59962 -3.14332 0
      vertex 0.988853 -3.04338 2.5
      vertex 0.59962 -3.14332 2.5
    endloop
  endfacet
  facet normal 0.248694 -0.968582 0
    outer loop
      vertex 0.988853 -3.04338 2.5
      vertex 0.59962 -3.14332 0
      vertex 0.988853 -3.04338 0
    endloop
  endfacet
  facet normal 0.770521 0.637414 0
    outer loop
      vertex 2.58885 1.88091 2.5
      vertex 2.3327 2.19055 0
      vertex 2.3327 2.19055 2.5
    endloop
  endfacet
  facet normal 0.770521 0.637414 0
    outer loop
      vertex 2.3327 2.19055 0
      vertex 2.58885 1.88091 2.5
      vertex 2.58885 1.88091 0
    endloop
  endfacet
  facet normal -0.904829 0.425775 0
    outer loop
      vertex -2.97528 1.178 0
      vertex -2.80418 1.54161 2.5
      vertex -2.80418 1.54161 0
    endloop
  endfacet
  facet normal -0.904829 0.425775 0
    outer loop
      vertex -2.80418 1.54161 2.5
      vertex -2.97528 1.178 0
      vertex -2.97528 1.178 2.5
    endloop
  endfacet
  facet normal 0.982288 -0.187379 0
    outer loop
      vertex 3.09947 -0.795807 2.5
      vertex 3.17477 -0.401066 0
      vertex 3.17477 -0.401066 2.5
    endloop
  endfacet
  facet normal 0.982288 -0.187379 0
    outer loop
      vertex 3.17477 -0.401066 0
      vertex 3.09947 -0.795807 2.5
      vertex 3.09947 -0.795807 0
    endloop
  endfacet
  facet normal -0.125318 -0.992117 0
    outer loop
      vertex -0.59962 -3.14332 0
      vertex -0.20093 -3.19368 2.5
      vertex -0.59962 -3.14332 2.5
    endloop
  endfacet
  facet normal -0.125318 -0.992117 -0
    outer loop
      vertex -0.20093 -3.19368 2.5
      vertex -0.59962 -3.14332 0
      vertex -0.20093 -3.19368 0
    endloop
  endfacet
  facet normal -0.951051 -0.309035 0
    outer loop
      vertex -2.97528 -1.178 0
      vertex -3.09947 -0.795807 2.5
      vertex -3.09947 -0.795807 0
    endloop
  endfacet
  facet normal -0.951051 -0.309035 0
    outer loop
      vertex -3.09947 -0.795807 2.5
      vertex -2.97528 -1.178 0
      vertex -2.97528 -1.178 2.5
    endloop
  endfacet
  facet normal -0.481751 -0.876308 0
    outer loop
      vertex -1.71465 -2.70185 0
      vertex -1.36249 -2.89545 2.5
      vertex -1.71465 -2.70185 2.5
    endloop
  endfacet
  facet normal -0.481751 -0.876308 -0
    outer loop
      vertex -1.36249 -2.89545 2.5
      vertex -1.71465 -2.70185 0
      vertex -1.36249 -2.89545 0
    endloop
  endfacet
  facet normal -0.248694 -0.968582 0
    outer loop
      vertex -0.988853 -3.04338 0
      vertex -0.59962 -3.14332 2.5
      vertex -0.988853 -3.04338 2.5
    endloop
  endfacet
  facet normal -0.248694 -0.968582 -0
    outer loop
      vertex -0.59962 -3.14332 2.5
      vertex -0.988853 -3.04338 0
      vertex -0.59962 -3.14332 0
    endloop
  endfacet
  facet normal -0.587791 -0.809013 0
    outer loop
      vertex -2.03976 -2.46564 0
      vertex -1.71465 -2.70185 2.5
      vertex -2.03976 -2.46564 2.5
    endloop
  endfacet
  facet normal -0.587791 -0.809013 -0
    outer loop
      vertex -1.71465 -2.70185 2.5
      vertex -2.03976 -2.46564 0
      vertex -1.71465 -2.70185 0
    endloop
  endfacet
  facet normal -0.770521 0.637414 0
    outer loop
      vertex -2.58885 1.88091 0
      vertex -2.3327 2.19055 2.5
      vertex -2.3327 2.19055 0
    endloop
  endfacet
  facet normal -0.770521 0.637414 0
    outer loop
      vertex -2.3327 2.19055 2.5
      vertex -2.58885 1.88091 0
      vertex -2.58885 1.88091 2.5
    endloop
  endfacet
  facet normal 0.125318 0.992117 -0
    outer loop
      vertex 0.59962 3.14332 0
      vertex 0.20093 3.19368 2.5
      vertex 0.59962 3.14332 2.5
    endloop
  endfacet
  facet normal 0.125318 0.992117 0
    outer loop
      vertex 0.20093 3.19368 2.5
      vertex 0.59962 3.14332 0
      vertex 0.20093 3.19368 0
    endloop
  endfacet
  facet normal -0.368117 -0.929779 0
    outer loop
      vertex -1.36249 -2.89545 0
      vertex -0.988853 -3.04338 2.5
      vertex -1.36249 -2.89545 2.5
    endloop
  endfacet
  facet normal -0.368117 -0.929779 -0
    outer loop
      vertex -0.988853 -3.04338 2.5
      vertex -1.36249 -2.89545 0
      vertex -0.988853 -3.04338 0
    endloop
  endfacet
  facet normal 0 0 1
    outer loop
      vertex 1.7 0 2.5
      vertex 3.2 0 2.5
      vertex 3.17477 0.401066 2.5
    endloop
  endfacet
  facet normal 0 0 1
    outer loop
      vertex 1.68659 0.213066 2.5
      vertex 3.17477 0.401066 2.5
      vertex 3.09947 0.795807 2.5
    endloop
  endfacet
  facet normal 0 0 1
    outer loop
      vertex 3.2 0 2.5
      vertex 1.7 0 2.5
      vertex 3.17477 -0.401066 2.5
    endloop
  endfacet
  facet normal 0 0 1
    outer loop
      vertex 1.64659 0.422772 2.5
      vertex 3.09947 0.795807 2.5
      vertex 2.97528 1.178 2.5
    endloop
  endfacet
  facet normal -0 0 1
    outer loop
      vertex 1.68659 -0.213066 2.5
      vertex 3.17477 -0.401066 2.5
      vertex 1.7 0 2.5
    endloop
  endfacet
  facet normal 0 0 1
    outer loop
      vertex 1.58062 0.625812 2.5
      vertex 2.97528 1.178 2.5
      vertex 2.80418 1.54161 2.5
    endloop
  endfacet
  facet normal 0 0 1
    outer loop
      vertex 3.17477 -0.401066 2.5
      vertex 1.68659 -0.213066 2.5
      vertex 3.09947 -0.795807 2.5
    endloop
  endfacet
  facet normal 0 0 1
    outer loop
      vertex 1.48972 0.818981 2.5
      vertex 2.80418 1.54161 2.5
      vertex 2.58885 1.88091 2.5
    endloop
  endfacet
  facet normal -0 0 1
    outer loop
      vertex 1.64659 -0.422772 2.5
      vertex 3.09947 -0.795807 2.5
      vertex 1.68659 -0.213066 2.5
    endloop
  endfacet
  facet normal 0 0 1
    outer loop
      vertex 1.37533 0.999234 2.5
      vertex 2.58885 1.88091 2.5
      vertex 2.3327 2.19055 2.5
    endloop
  endfacet
  facet normal 0 0 1
    outer loop
      vertex 3.09947 -0.795807 2.5
      vertex 1.64659 -0.422772 2.5
      vertex 2.97528 -1.178 2.5
    endloop
  endfacet
  facet normal 0 0 1
    outer loop
      vertex 1.23925 1.16373 2.5
      vertex 2.3327 2.19055 2.5
      vertex 2.03976 2.46564 2.5
    endloop
  endfacet
  facet normal -0 0 1
    outer loop
      vertex 1.58062 -0.625812 2.5
      vertex 2.97528 -1.178 2.5
      vertex 1.64659 -0.422772 2.5
    endloop
  endfacet
  facet normal 0 0 1
    outer loop
      vertex 1.08362 1.30987 2.5
      vertex 2.03976 2.46564 2.5
      vertex 1.71465 2.70185 2.5
    endloop
  endfacet
  facet normal 0 0 1
    outer loop
      vertex 2.97528 -1.178 2.5
      vertex 1.58062 -0.625812 2.5
      vertex 2.80418 -1.54161 2.5
    endloop
  endfacet
  facet normal -0 0 1
    outer loop
      vertex 1.48972 -0.818981 2.5
      vertex 2.80418 -1.54161 2.5
      vertex 1.58062 -0.625812 2.5
    endloop
  endfacet
  facet normal 0 0 1
    outer loop
      vertex 3.17477 0.401066 2.5
      vertex 1.68659 0.213066 2.5
      vertex 1.7 0 2.5
    endloop
  endfacet
  facet normal 0 0 1
    outer loop
      vertex 3.09947 0.795807 2.5
      vertex 1.64659 0.422772 2.5
      vertex 1.68659 0.213066 2.5
    endloop
  endfacet
  facet normal 0 0 1
    outer loop
      vertex 2.97528 1.178 2.5
      vertex 1.58062 0.625812 2.5
      vertex 1.64659 0.422772 2.5
    endloop
  endfacet
  facet normal 0 0 1
    outer loop
      vertex 2.80418 1.54161 2.5
      vertex 1.48972 0.818981 2.5
      vertex 1.58062 0.625812 2.5
    endloop
  endfacet
  facet normal 0 0 1
    outer loop
      vertex 2.58885 1.88091 2.5
      vertex 1.37533 0.999234 2.5
      vertex 1.48972 0.818981 2.5
    endloop
  endfacet
  facet normal 0 0 1
    outer loop
      vertex 0.910905 1.43536 2.5
      vertex 1.71465 2.70185 2.5
      vertex 1.36249 2.89545 2.5
    endloop
  endfacet
  facet normal 0 0 1
    outer loop
      vertex 2.3327 2.19055 2.5
      vertex 1.23925 1.16373 2.5
      vertex 1.37533 0.999234 2.5
    endloop
  endfacet
  facet normal 0 0 1
    outer loop
      vertex 2.03976 2.46564 2.5
      vertex 1.08362 1.30987 2.5
      vertex 1.23925 1.16373 2.5
    endloop
  endfacet
  facet normal 0 0 1
    outer loop
      vertex 0.723825 1.53821 2.5
      vertex 1.36249 2.89545 2.5
      vertex 0.988853 3.04338 2.5
    endloop
  endfacet
  facet normal 0 0 1
    outer loop
      vertex 1.71465 2.70185 2.5
      vertex 0.910905 1.43536 2.5
      vertex 1.08362 1.30987 2.5
    endloop
  endfacet
  facet normal 0 0 1
    outer loop
      vertex 1.36249 2.89545 2.5
      vertex 0.723825 1.53821 2.5
      vertex 0.910905 1.43536 2.5
    endloop
  endfacet
  facet normal 0 0 1
    outer loop
      vertex 0.525329 1.6168 2.5
      vertex 0.988853 3.04338 2.5
      vertex 0.59962 3.14332 2.5
    endloop
  endfacet
  facet normal 0 0 1
    outer loop
      vertex 0.988853 3.04338 2.5
      vertex 0.525329 1.6168 2.5
      vertex 0.723825 1.53821 2.5
    endloop
  endfacet
  facet normal 0 0 1
    outer loop
      vertex 0.59962 3.14332 2.5
      vertex 0.318548 1.66989 2.5
      vertex 0.525329 1.6168 2.5
    endloop
  endfacet
  facet normal 0 0 1
    outer loop
      vertex 0.20093 3.19368 2.5
      vertex 0.318548 1.66989 2.5
      vertex 0.59962 3.14332 2.5
    endloop
  endfacet
  facet normal 0 0 1
    outer loop
      vertex 0.20093 3.19368 2.5
      vertex 0.106744 1.69664 2.5
      vertex 0.318548 1.66989 2.5
    endloop
  endfacet
  facet normal 0 0 1
    outer loop
      vertex 0.20093 3.19368 2.5
      vertex -0.106744 1.69664 2.5
      vertex 0.106744 1.69664 2.5
    endloop
  endfacet
  facet normal -0 0 1
    outer loop
      vertex -0.20093 3.19368 2.5
      vertex -0.106744 1.69664 2.5
      vertex 0.20093 3.19368 2.5
    endloop
  endfacet
  facet normal 0 0 1
    outer loop
      vertex -0.20093 3.19368 2.5
      vertex -0.318548 1.66989 2.5
      vertex -0.106744 1.69664 2.5
    endloop
  endfacet
  facet normal -0 0 1
    outer loop
      vertex -0.59962 3.14332 2.5
      vertex -0.318548 1.66989 2.5
      vertex -0.20093 3.19368 2.5
    endloop
  endfacet
  facet normal 0 0 1
    outer loop
      vertex -0.318548 1.66989 2.5
      vertex -0.59962 3.14332 2.5
      vertex -0.525329 1.6168 2.5
    endloop
  endfacet
  facet normal -0 0 1
    outer loop
      vertex -0.988853 3.04338 2.5
      vertex -0.525329 1.6168 2.5
      vertex -0.59962 3.14332 2.5
    endloop
  endfacet
  facet normal 0 0 1
    outer loop
      vertex -0.525329 1.6168 2.5
      vertex -0.988853 3.04338 2.5
      vertex -0.723825 1.53821 2.5
    endloop
  endfacet
  facet normal -0 0 1
    outer loop
      vertex -1.36249 2.89545 2.5
      vertex -0.723825 1.53821 2.5
      vertex -0.988853 3.04338 2.5
    endloop
  endfacet
  facet normal 0 0 1
    outer loop
      vertex -0.723825 1.53821 2.5
      vertex -1.36249 2.89545 2.5
      vertex -0.910905 1.43536 2.5
    endloop
  endfacet
  facet normal -0 0 1
    outer loop
      vertex -1.71465 2.70185 2.5
      vertex -0.910905 1.43536 2.5
      vertex -1.36249 2.89545 2.5
    endloop
  endfacet
  facet normal 0 0 1
    outer loop
      vertex -0.910905 1.43536 2.5
      vertex -1.71465 2.70185 2.5
      vertex -1.08362 1.30987 2.5
    endloop
  endfacet
  facet normal -0 0 1
    outer loop
      vertex -2.03976 2.46564 2.5
      vertex -1.08362 1.30987 2.5
      vertex -1.71465 2.70185 2.5
    endloop
  endfacet
  facet normal 0 0 1
    outer loop
      vertex -1.08362 1.30987 2.5
      vertex -2.03976 2.46564 2.5
      vertex -1.23925 1.16373 2.5
    endloop
  endfacet
  facet normal -0 0 1
    outer loop
      vertex -2.3327 2.19055 2.5
      vertex -1.23925 1.16373 2.5
      vertex -2.03976 2.46564 2.5
    endloop
  endfacet
  facet normal 0 0 1
    outer loop
      vertex -1.23925 1.16373 2.5
      vertex -2.3327 2.19055 2.5
      vertex -1.37533 0.999234 2.5
    endloop
  endfacet
  facet normal -0 0 1
    outer loop
      vertex -2.58885 1.88091 2.5
      vertex -1.37533 0.999234 2.5
      vertex -2.3327 2.19055 2.5
    endloop
  endfacet
  facet normal -0 0 1
    outer loop
      vertex -2.80418 1.54161 2.5
      vertex -1.48972 0.818981 2.5
      vertex -2.58885 1.88091 2.5
    endloop
  endfacet
  facet normal 0 0 1
    outer loop
      vertex -1.37533 0.999234 2.5
      vertex -2.58885 1.88091 2.5
      vertex -1.48972 0.818981 2.5
    endloop
  endfacet
  facet normal 0 0 1
    outer loop
      vertex 2.80418 -1.54161 2.5
      vertex 1.48972 -0.818981 2.5
      vertex 2.58885 -1.88091 2.5
    endloop
  endfacet
  facet normal -0 0 1
    outer loop
      vertex 1.37533 -0.999234 2.5
      vertex 2.58885 -1.88091 2.5
      vertex 1.48972 -0.818981 2.5
    endloop
  endfacet
  facet normal 0 0 1
    outer loop
      vertex 2.58885 -1.88091 2.5
      vertex 1.37533 -0.999234 2.5
      vertex 2.3327 -2.19055 2.5
    endloop
  endfacet
  facet normal -0 0 1
    outer loop
      vertex 1.23925 -1.16373 2.5
      vertex 2.3327 -2.19055 2.5
      vertex 1.37533 -0.999234 2.5
    endloop
  endfacet
  facet normal 0 0 1
    outer loop
      vertex 2.3327 -2.19055 2.5
      vertex 1.23925 -1.16373 2.5
      vertex 2.03976 -2.46564 2.5
    endloop
  endfacet
  facet normal -0 0 1
    outer loop
      vertex 1.08362 -1.30987 2.5
      vertex 2.03976 -2.46564 2.5
      vertex 1.23925 -1.16373 2.5
    endloop
  endfacet
  facet normal 0 0 1
    outer loop
      vertex 2.03976 -2.46564 2.5
      vertex 1.08362 -1.30987 2.5
      vertex 1.71465 -2.70185 2.5
    endloop
  endfacet
  facet normal -0 0 1
    outer loop
      vertex 0.910905 -1.43536 2.5
      vertex 1.71465 -2.70185 2.5
      vertex 1.08362 -1.30987 2.5
    endloop
  endfacet
  facet normal 0 0 1
    outer loop
      vertex 1.71465 -2.70185 2.5
      vertex 0.910905 -1.43536 2.5
      vertex 1.36249 -2.89545 2.5
    endloop
  endfacet
  facet normal -0 0 1
    outer loop
      vertex 0.723825 -1.53821 2.5
      vertex 1.36249 -2.89545 2.5
      vertex 0.910905 -1.43536 2.5
    endloop
  endfacet
  facet normal 0 0 1
    outer loop
      vertex 1.36249 -2.89545 2.5
      vertex 0.723825 -1.53821 2.5
      vertex 0.988853 -3.04338 2.5
    endloop
  endfacet
  facet normal -0 0 1
    outer loop
      vertex 0.525329 -1.6168 2.5
      vertex 0.988853 -3.04338 2.5
      vertex 0.723825 -1.53821 2.5
    endloop
  endfacet
  facet normal 0 0 1
    outer loop
      vertex 0.988853 -3.04338 2.5
      vertex 0.525329 -1.6168 2.5
      vertex 0.59962 -3.14332 2.5
    endloop
  endfacet
  facet normal -0 0 1
    outer loop
      vertex 0.318548 -1.66989 2.5
      vertex 0.59962 -3.14332 2.5
      vertex 0.525329 -1.6168 2.5
    endloop
  endfacet
  facet normal 0 0 1
    outer loop
      vertex 0.318548 -1.66989 2.5
      vertex 0.20093 -3.19368 2.5
      vertex 0.59962 -3.14332 2.5
    endloop
  endfacet
  facet normal -0 0 1
    outer loop
      vertex 0.106744 -1.69664 2.5
      vertex 0.20093 -3.19368 2.5
      vertex 0.318548 -1.66989 2.5
    endloop
  endfacet
  facet normal -0 0 1
    outer loop
      vertex -0.106744 -1.69664 2.5
      vertex 0.20093 -3.19368 2.5
      vertex 0.106744 -1.69664 2.5
    endloop
  endfacet
  facet normal 0 0 1
    outer loop
      vertex -0.106744 -1.69664 2.5
      vertex -0.20093 -3.19368 2.5
      vertex 0.20093 -3.19368 2.5
    endloop
  endfacet
  facet normal 0 0 1
    outer loop
      vertex -0.318548 -1.66989 2.5
      vertex -0.20093 -3.19368 2.5
      vertex -0.106744 -1.69664 2.5
    endloop
  endfacet
  facet normal 0 0 1
    outer loop
      vertex -0.59962 -3.14332 2.5
      vertex -0.318548 -1.66989 2.5
      vertex -0.525329 -1.6168 2.5
    endloop
  endfacet
  facet normal 0 0 1
    outer loop
      vertex -0.318548 -1.66989 2.5
      vertex -0.59962 -3.14332 2.5
      vertex -0.20093 -3.19368 2.5
    endloop
  endfacet
  facet normal 0 0 1
    outer loop
      vertex -0.988853 -3.04338 2.5
      vertex -0.525329 -1.6168 2.5
      vertex -0.723825 -1.53821 2.5
    endloop
  endfacet
  facet normal 0 0 1
    outer loop
      vertex -1.36249 -2.89545 2.5
      vertex -0.723825 -1.53821 2.5
      vertex -0.910905 -1.43536 2.5
    endloop
  endfacet
  facet normal 0 0 1
    outer loop
      vertex -0.525329 -1.6168 2.5
      vertex -0.988853 -3.04338 2.5
      vertex -0.59962 -3.14332 2.5
    endloop
  endfacet
  facet normal 0 0 1
    outer loop
      vertex -1.71465 -2.70185 2.5
      vertex -0.910905 -1.43536 2.5
      vertex -1.08362 -1.30987 2.5
    endloop
  endfacet
  facet normal 0 0 1
    outer loop
      vertex -2.03976 -2.46564 2.5
      vertex -1.08362 -1.30987 2.5
      vertex -1.23925 -1.16373 2.5
    endloop
  endfacet
  facet normal 0 0 1
    outer loop
      vertex -0.723825 -1.53821 2.5
      vertex -1.36249 -2.89545 2.5
      vertex -0.988853 -3.04338 2.5
    endloop
  endfacet
  facet normal 0 0 1
    outer loop
      vertex -2.3327 -2.19055 2.5
      vertex -1.23925 -1.16373 2.5
      vertex -1.37533 -0.999234 2.5
    endloop
  endfacet
  facet normal 0 0 1
    outer loop
      vertex -2.58885 -1.88091 2.5
      vertex -1.37533 -0.999234 2.5
      vertex -1.48972 -0.818981 2.5
    endloop
  endfacet
  facet normal 0 0 1
    outer loop
      vertex -2.80418 -1.54161 2.5
      vertex -1.48972 -0.818981 2.5
      vertex -1.58062 -0.625812 2.5
    endloop
  endfacet
  facet normal 0 0 1
    outer loop
      vertex -2.97528 -1.178 2.5
      vertex -1.58062 -0.625812 2.5
      vertex -1.64659 -0.422772 2.5
    endloop
  endfacet
  facet normal 0 0 1
    outer loop
      vertex -3.09947 -0.795807 2.5
      vertex -1.64659 -0.422772 2.5
      vertex -1.68659 -0.213066 2.5
    endloop
  endfacet
  facet normal 0 0 1
    outer loop
      vertex -0.910905 -1.43536 2.5
      vertex -1.71465 -2.70185 2.5
      vertex -1.36249 -2.89545 2.5
    endloop
  endfacet
  facet normal 0 0 1
    outer loop
      vertex -3.17477 -0.401066 2.5
      vertex -1.68659 -0.213066 2.5
      vertex -1.7 0 2.5
    endloop
  endfacet
  facet normal 0 0 1
    outer loop
      vertex -1.48972 0.818981 2.5
      vertex -2.80418 1.54161 2.5
      vertex -1.58062 0.625812 2.5
    endloop
  endfacet
  facet normal -0 0 1
    outer loop
      vertex -2.97528 1.178 2.5
      vertex -1.58062 0.625812 2.5
      vertex -2.80418 1.54161 2.5
    endloop
  endfacet
  facet normal 0 0 1
    outer loop
      vertex -1.08362 -1.30987 2.5
      vertex -2.03976 -2.46564 2.5
      vertex -1.71465 -2.70185 2.5
    endloop
  endfacet
  facet normal 0 0 1
    outer loop
      vertex -1.58062 0.625812 2.5
      vertex -2.97528 1.178 2.5
      vertex -1.64659 0.422772 2.5
    endloop
  endfacet
  facet normal 0 0 1
    outer loop
      vertex -1.23925 -1.16373 2.5
      vertex -2.3327 -2.19055 2.5
      vertex -2.03976 -2.46564 2.5
    endloop
  endfacet
  facet normal -0 0 1
    outer loop
      vertex -3.09947 0.795807 2.5
      vertex -1.64659 0.422772 2.5
      vertex -2.97528 1.178 2.5
    endloop
  endfacet
  facet normal 0 0 1
    outer loop
      vertex -1.37533 -0.999234 2.5
      vertex -2.58885 -1.88091 2.5
      vertex -2.3327 -2.19055 2.5
    endloop
  endfacet
  facet normal 0 0 1
    outer loop
      vertex -1.64659 0.422772 2.5
      vertex -3.09947 0.795807 2.5
      vertex -1.68659 0.213066 2.5
    endloop
  endfacet
  facet normal 0 0 1
    outer loop
      vertex -1.48972 -0.818981 2.5
      vertex -2.80418 -1.54161 2.5
      vertex -2.58885 -1.88091 2.5
    endloop
  endfacet
  facet normal -0 0 1
    outer loop
      vertex -3.17477 0.401066 2.5
      vertex -1.68659 0.213066 2.5
      vertex -3.09947 0.795807 2.5
    endloop
  endfacet
  facet normal 0 0 1
    outer loop
      vertex -1.58062 -0.625812 2.5
      vertex -2.97528 -1.178 2.5
      vertex -2.80418 -1.54161 2.5
    endloop
  endfacet
  facet normal 0 0 1
    outer loop
      vertex -1.68659 0.213066 2.5
      vertex -3.17477 0.401066 2.5
      vertex -1.7 0 2.5
    endloop
  endfacet
  facet normal 0 0 1
    outer loop
      vertex -1.64659 -0.422772 2.5
      vertex -3.09947 -0.795807 2.5
      vertex -2.97528 -1.178 2.5
    endloop
  endfacet
  facet normal 0 0 1
    outer loop
      vertex -3.2 0 2.5
      vertex -1.7 0 2.5
      vertex -3.17477 0.401066 2.5
    endloop
  endfacet
  facet normal 0 0 1
    outer loop
      vertex -1.68659 -0.213066 2.5
      vertex -3.17477 -0.401066 2.5
      vertex -3.09947 -0.795807 2.5
    endloop
  endfacet
  facet normal 0 0 1
    outer loop
      vertex -1.7 0 2.5
      vertex -3.2 0 2.5
      vertex -3.17477 -0.401066 2.5
    endloop
  endfacet
  facet normal 0.770521 -0.637414 0
    outer loop
      vertex 2.3327 -2.19055 2.5
      vertex 2.58885 -1.88091 0
      vertex 2.58885 -1.88091 2.5
    endloop
  endfacet
  facet normal 0.770521 -0.637414 0
    outer loop
      vertex 2.58885 -1.88091 0
      vertex 2.3327 -2.19055 2.5
      vertex 2.3327 -2.19055 0
    endloop
  endfacet
  facet normal 0 0 -1
    outer loop
      vertex 1.7 0 0
      vertex 3.2 0 0
      vertex 3.17477 -0.401066 0
    endloop
  endfacet
  facet normal 0 0 -1
    outer loop
      vertex 1.68659 -0.213066 0
      vertex 3.17477 -0.401066 0
      vertex 3.09947 -0.795807 0
    endloop
  endfacet
  facet normal 0 0 -1
    outer loop
      vertex 3.2 0 0
      vertex 1.7 0 0
      vertex 3.17477 0.401066 0
    endloop
  endfacet
  facet normal 0 0 -1
    outer loop
      vertex 1.64659 -0.422772 0
      vertex 3.09947 -0.795807 0
      vertex 2.97528 -1.178 0
    endloop
  endfacet
  facet normal 0 0 -1
    outer loop
      vertex 1.68659 0.213066 0
      vertex 3.17477 0.401066 0
      vertex 1.7 0 0
    endloop
  endfacet
  facet normal 0 0 -1
    outer loop
      vertex 1.58062 -0.625812 0
      vertex 2.97528 -1.178 0
      vertex 2.80418 -1.54161 0
    endloop
  endfacet
  facet normal -0 0 -1
    outer loop
      vertex 3.17477 0.401066 0
      vertex 1.68659 0.213066 0
      vertex 3.09947 0.795807 0
    endloop
  endfacet
  facet normal 0 0 -1
    outer loop
      vertex 1.48972 -0.818981 0
      vertex 2.80418 -1.54161 0
      vertex 2.58885 -1.88091 0
    endloop
  endfacet
  facet normal 0 0 -1
    outer loop
      vertex 1.64659 0.422772 0
      vertex 3.09947 0.795807 0
      vertex 1.68659 0.213066 0
    endloop
  endfacet
  facet normal 0 0 -1
    outer loop
      vertex 1.37533 -0.999234 0
      vertex 2.58885 -1.88091 0
      vertex 2.3327 -2.19055 0
    endloop
  endfacet
  facet normal -0 0 -1
    outer loop
      vertex 3.09947 0.795807 0
      vertex 1.64659 0.422772 0
      vertex 2.97528 1.178 0
    endloop
  endfacet
  facet normal 0 0 -1
    outer loop
      vertex 1.23925 -1.16373 0
      vertex 2.3327 -2.19055 0
      vertex 2.03976 -2.46564 0
    endloop
  endfacet
  facet normal 0 0 -1
    outer loop
      vertex 1.58062 0.625812 0
      vertex 2.97528 1.178 0
      vertex 1.64659 0.422772 0
    endloop
  endfacet
  facet normal 0 0 -1
    outer loop
      vertex 1.08362 -1.30987 0
      vertex 2.03976 -2.46564 0
      vertex 1.71465 -2.70185 0
    endloop
  endfacet
  facet normal -0 0 -1
    outer loop
      vertex 2.97528 1.178 0
      vertex 1.58062 0.625812 0
      vertex 2.80418 1.54161 0
    endloop
  endfacet
  facet normal 0 0 -1
    outer loop
      vertex 1.48972 0.818981 0
      vertex 2.80418 1.54161 0
      vertex 1.58062 0.625812 0
    endloop
  endfacet
  facet normal 0 0 -1
    outer loop
      vertex 3.17477 -0.401066 0
      vertex 1.68659 -0.213066 0
      vertex 1.7 0 0
    endloop
  endfacet
  facet normal 0 0 -1
    outer loop
      vertex 3.09947 -0.795807 0
      vertex 1.64659 -0.422772 0
      vertex 1.68659 -0.213066 0
    endloop
  endfacet
  facet normal 0 0 -1
    outer loop
      vertex 2.97528 -1.178 0
      vertex 1.58062 -0.625812 0
      vertex 1.64659 -0.422772 0
    endloop
  endfacet
  facet normal 0 0 -1
    outer loop
      vertex 2.80418 -1.54161 0
      vertex 1.48972 -0.818981 0
      vertex 1.58062 -0.625812 0
    endloop
  endfacet
  facet normal 0 0 -1
    outer loop
      vertex 2.58885 -1.88091 0
      vertex 1.37533 -0.999234 0
      vertex 1.48972 -0.818981 0
    endloop
  endfacet
  facet normal 0 0 -1
    outer loop
      vertex 0.910905 -1.43536 0
      vertex 1.71465 -2.70185 0
      vertex 1.36249 -2.89545 0
    endloop
  endfacet
  facet normal 0 0 -1
    outer loop
      vertex 2.3327 -2.19055 0
      vertex 1.23925 -1.16373 0
      vertex 1.37533 -0.999234 0
    endloop
  endfacet
  facet normal 0 0 -1
    outer loop
      vertex 2.03976 -2.46564 0
      vertex 1.08362 -1.30987 0
      vertex 1.23925 -1.16373 0
    endloop
  endfacet
  facet normal 0 0 -1
    outer loop
      vertex 0.723825 -1.53821 0
      vertex 1.36249 -2.89545 0
      vertex 0.988853 -3.04338 0
    endloop
  endfacet
  facet normal 0 0 -1
    outer loop
      vertex 1.71465 -2.70185 0
      vertex 0.910905 -1.43536 0
      vertex 1.08362 -1.30987 0
    endloop
  endfacet
  facet normal 0 0 -1
    outer loop
      vertex 1.36249 -2.89545 0
      vertex 0.723825 -1.53821 0
      vertex 0.910905 -1.43536 0
    endloop
  endfacet
  facet normal 0 0 -1
    outer loop
      vertex 0.525329 -1.6168 0
      vertex 0.988853 -3.04338 0
      vertex 0.59962 -3.14332 0
    endloop
  endfacet
  facet normal 0 0 -1
    outer loop
      vertex 0.988853 -3.04338 0
      vertex 0.525329 -1.6168 0
      vertex 0.723825 -1.53821 0
    endloop
  endfacet
  facet normal 0 0 -1
    outer loop
      vertex 0.59962 -3.14332 0
      vertex 0.318548 -1.66989 0
      vertex 0.525329 -1.6168 0
    endloop
  endfacet
  facet normal 0 0 -1
    outer loop
      vertex 0.20093 -3.19368 0
      vertex 0.318548 -1.66989 0
      vertex 0.59962 -3.14332 0
    endloop
  endfacet
  facet normal 0 0 -1
    outer loop
      vertex 0.20093 -3.19368 0
      vertex 0.106744 -1.69664 0
      vertex 0.318548 -1.66989 0
    endloop
  endfacet
  facet normal 0 0 -1
    outer loop
      vertex 0.20093 -3.19368 0
      vertex -0.106744 -1.69664 0
      vertex 0.106744 -1.69664 0
    endloop
  endfacet
  facet normal 0 0 -1
    outer loop
      vertex -0.20093 -3.19368 0
      vertex -0.106744 -1.69664 0
      vertex 0.20093 -3.19368 0
    endloop
  endfacet
  facet normal 0 0 -1
    outer loop
      vertex -0.20093 -3.19368 0
      vertex -0.318548 -1.66989 0
      vertex -0.106744 -1.69664 0
    endloop
  endfacet
  facet normal 0 0 -1
    outer loop
      vertex -0.59962 -3.14332 0
      vertex -0.318548 -1.66989 0
      vertex -0.20093 -3.19368 0
    endloop
  endfacet
  facet normal -0 0 -1
    outer loop
      vertex -0.318548 -1.66989 0
      vertex -0.59962 -3.14332 0
      vertex -0.525329 -1.6168 0
    endloop
  endfacet
  facet normal 0 0 -1
    outer loop
      vertex -0.988853 -3.04338 0
      vertex -0.525329 -1.6168 0
      vertex -0.59962 -3.14332 0
    endloop
  endfacet
  facet normal -0 0 -1
    outer loop
      vertex -0.525329 -1.6168 0
      vertex -0.988853 -3.04338 0
      vertex -0.723825 -1.53821 0
    endloop
  endfacet
  facet normal 0 0 -1
    outer loop
      vertex -1.36249 -2.89545 0
      vertex -0.723825 -1.53821 0
      vertex -0.988853 -3.04338 0
    endloop
  endfacet
  facet normal -0 0 -1
    outer loop
      vertex -0.723825 -1.53821 0
      vertex -1.36249 -2.89545 0
      vertex -0.910905 -1.43536 0
    endloop
  endfacet
  facet normal 0 0 -1
    outer loop
      vertex -1.71465 -2.70185 0
      vertex -0.910905 -1.43536 0
      vertex -1.36249 -2.89545 0
    endloop
  endfacet
  facet normal -0 0 -1
    outer loop
      vertex -0.910905 -1.43536 0
      vertex -1.71465 -2.70185 0
      vertex -1.08362 -1.30987 0
    endloop
  endfacet
  facet normal 0 0 -1
    outer loop
      vertex -2.03976 -2.46564 0
      vertex -1.08362 -1.30987 0
      vertex -1.71465 -2.70185 0
    endloop
  endfacet
  facet normal -0 0 -1
    outer loop
      vertex -1.08362 -1.30987 0
      vertex -2.03976 -2.46564 0
      vertex -1.23925 -1.16373 0
    endloop
  endfacet
  facet normal 0 0 -1
    outer loop
      vertex -2.3327 -2.19055 0
      vertex -1.23925 -1.16373 0
      vertex -2.03976 -2.46564 0
    endloop
  endfacet
  facet normal -0 0 -1
    outer loop
      vertex -1.23925 -1.16373 0
      vertex -2.3327 -2.19055 0
      vertex -1.37533 -0.999234 0
    endloop
  endfacet
  facet normal 0 0 -1
    outer loop
      vertex -2.58885 -1.88091 0
      vertex -1.37533 -0.999234 0
      vertex -2.3327 -2.19055 0
    endloop
  endfacet
  facet normal 0 0 -1
    outer loop
      vertex -2.80418 -1.54161 0
      vertex -1.48972 -0.818981 0
      vertex -2.58885 -1.88091 0
    endloop
  endfacet
  facet normal -0 0 -1
    outer loop
      vertex -1.37533 -0.999234 0
      vertex -2.58885 -1.88091 0
      vertex -1.48972 -0.818981 0
    endloop
  endfacet
  facet normal -0 0 -1
    outer loop
      vertex 2.80418 1.54161 0
      vertex 1.48972 0.818981 0
      vertex 2.58885 1.88091 0
    endloop
  endfacet
  facet normal 0 0 -1
    outer loop
      vertex 1.37533 0.999234 0
      vertex 2.58885 1.88091 0
      vertex 1.48972 0.818981 0
    endloop
  endfacet
  facet normal -0 0 -1
    outer loop
      vertex 2.58885 1.88091 0
      vertex 1.37533 0.999234 0
      vertex 2.3327 2.19055 0
    endloop
  endfacet
  facet normal 0 0 -1
    outer loop
      vertex 1.23925 1.16373 0
      vertex 2.3327 2.19055 0
      vertex 1.37533 0.999234 0
    endloop
  endfacet
  facet normal -0 0 -1
    outer loop
      vertex 2.3327 2.19055 0
      vertex 1.23925 1.16373 0
      vertex 2.03976 2.46564 0
    endloop
  endfacet
  facet normal 0 0 -1
    outer loop
      vertex 1.08362 1.30987 0
      vertex 2.03976 2.46564 0
      vertex 1.23925 1.16373 0
    endloop
  endfacet
  facet normal -0 0 -1
    outer loop
      vertex 2.03976 2.46564 0
      vertex 1.08362 1.30987 0
      vertex 1.71465 2.70185 0
    endloop
  endfacet
  facet normal 0 0 -1
    outer loop
      vertex 0.910905 1.43536 0
      vertex 1.71465 2.70185 0
      vertex 1.08362 1.30987 0
    endloop
  endfacet
  facet normal -0 0 -1
    outer loop
      vertex 1.71465 2.70185 0
      vertex 0.910905 1.43536 0
      vertex 1.36249 2.89545 0
    endloop
  endfacet
  facet normal 0 0 -1
    outer loop
      vertex 0.723825 1.53821 0
      vertex 1.36249 2.89545 0
      vertex 0.910905 1.43536 0
    endloop
  endfacet
  facet normal -0 0 -1
    outer loop
      vertex 1.36249 2.89545 0
      vertex 0.723825 1.53821 0
      vertex 0.988853 3.04338 0
    endloop
  endfacet
  facet normal 0 0 -1
    outer loop
      vertex 0.525329 1.6168 0
      vertex 0.988853 3.04338 0
      vertex 0.723825 1.53821 0
    endloop
  endfacet
  facet normal -0 0 -1
    outer loop
      vertex 0.988853 3.04338 0
      vertex 0.525329 1.6168 0
      vertex 0.59962 3.14332 0
    endloop
  endfacet
  facet normal 0 0 -1
    outer loop
      vertex 0.318548 1.66989 0
      vertex 0.59962 3.14332 0
      vertex 0.525329 1.6168 0
    endloop
  endfacet
  facet normal 0 0 -1
    outer loop
      vertex 0.318548 1.66989 0
      vertex 0.20093 3.19368 0
      vertex 0.59962 3.14332 0
    endloop
  endfacet
  facet normal 0 0 -1
    outer loop
      vertex 0.106744 1.69664 0
      vertex 0.20093 3.19368 0
      vertex 0.318548 1.66989 0
    endloop
  endfacet
  facet normal 0 0 -1
    outer loop
      vertex -0.106744 1.69664 0
      vertex 0.20093 3.19368 0
      vertex 0.106744 1.69664 0
    endloop
  endfacet
  facet normal 0 0 -1
    outer loop
      vertex -0.106744 1.69664 0
      vertex -0.20093 3.19368 0
      vertex 0.20093 3.19368 0
    endloop
  endfacet
  facet normal 0 0 -1
    outer loop
      vertex -0.318548 1.66989 0
      vertex -0.20093 3.19368 0
      vertex -0.106744 1.69664 0
    endloop
  endfacet
  facet normal 0 0 -1
    outer loop
      vertex -0.59962 3.14332 0
      vertex -0.318548 1.66989 0
      vertex -0.525329 1.6168 0
    endloop
  endfacet
  facet normal 0 0 -1
    outer loop
      vertex -0.318548 1.66989 0
      vertex -0.59962 3.14332 0
      vertex -0.20093 3.19368 0
    endloop
  endfacet
  facet normal 0 0 -1
    outer loop
      vertex -0.988853 3.04338 0
      vertex -0.525329 1.6168 0
      vertex -0.723825 1.53821 0
    endloop
  endfacet
  facet normal 0 0 -1
    outer loop
      vertex -1.36249 2.89545 0
      vertex -0.723825 1.53821 0
      vertex -0.910905 1.43536 0
    endloop
  endfacet
  facet normal 0 0 -1
    outer loop
      vertex -0.525329 1.6168 0
      vertex -0.988853 3.04338 0
      vertex -0.59962 3.14332 0
    endloop
  endfacet
  facet normal 0 0 -1
    outer loop
      vertex -1.71465 2.70185 0
      vertex -0.910905 1.43536 0
      vertex -1.08362 1.30987 0
    endloop
  endfacet
  facet normal 0 0 -1
    outer loop
      vertex -2.03976 2.46564 0
      vertex -1.08362 1.30987 0
      vertex -1.23925 1.16373 0
    endloop
  endfacet
  facet normal 0 0 -1
    outer loop
      vertex -0.723825 1.53821 0
      vertex -1.36249 2.89545 0
      vertex -0.988853 3.04338 0
    endloop
  endfacet
  facet normal 0 0 -1
    outer loop
      vertex -2.3327 2.19055 0
      vertex -1.23925 1.16373 0
      vertex -1.37533 0.999234 0
    endloop
  endfacet
  facet normal 0 0 -1
    outer loop
      vertex -2.58885 1.88091 0
      vertex -1.37533 0.999234 0
      vertex -1.48972 0.818981 0
    endloop
  endfacet
  facet normal 0 0 -1
    outer loop
      vertex -2.80418 1.54161 0
      vertex -1.48972 0.818981 0
      vertex -1.58062 0.625812 0
    endloop
  endfacet
  facet normal 0 0 -1
    outer loop
      vertex -2.97528 1.178 0
      vertex -1.58062 0.625812 0
      vertex -1.64659 0.422772 0
    endloop
  endfacet
  facet normal 0 0 -1
    outer loop
      vertex -3.09947 0.795807 0
      vertex -1.64659 0.422772 0
      vertex -1.68659 0.213066 0
    endloop
  endfacet
  facet normal 0 0 -1
    outer loop
      vertex -0.910905 1.43536 0
      vertex -1.71465 2.70185 0
      vertex -1.36249 2.89545 0
    endloop
  endfacet
  facet normal 0 0 -1
    outer loop
      vertex -3.17477 0.401066 0
      vertex -1.68659 0.213066 0
      vertex -1.7 0 0
    endloop
  endfacet
  facet normal -0 0 -1
    outer loop
      vertex -1.48972 -0.818981 0
      vertex -2.80418 -1.54161 0
      vertex -1.58062 -0.625812 0
    endloop
  endfacet
  facet normal 0 0 -1
    outer loop
      vertex -2.97528 -1.178 0
      vertex -1.58062 -0.625812 0
      vertex -2.80418 -1.54161 0
    endloop
  endfacet
  facet normal 0 0 -1
    outer loop
      vertex -1.08362 1.30987 0
      vertex -2.03976 2.46564 0
      vertex -1.71465 2.70185 0
    endloop
  endfacet
  facet normal -0 0 -1
    outer loop
      vertex -1.58062 -0.625812 0
      vertex -2.97528 -1.178 0
      vertex -1.64659 -0.422772 0
    endloop
  endfacet
  facet normal 0 0 -1
    outer loop
      vertex -1.23925 1.16373 0
      vertex -2.3327 2.19055 0
      vertex -2.03976 2.46564 0
    endloop
  endfacet
  facet normal 0 0 -1
    outer loop
      vertex -3.09947 -0.795807 0
      vertex -1.64659 -0.422772 0
      vertex -2.97528 -1.178 0
    endloop
  endfacet
  facet normal 0 0 -1
    outer loop
      vertex -1.37533 0.999234 0
      vertex -2.58885 1.88091 0
      vertex -2.3327 2.19055 0
    endloop
  endfacet
  facet normal -0 0 -1
    outer loop
      vertex -1.64659 -0.422772 0
      vertex -3.09947 -0.795807 0
      vertex -1.68659 -0.213066 0
    endloop
  endfacet
  facet normal 0 0 -1
    outer loop
      vertex -1.48972 0.818981 0
      vertex -2.80418 1.54161 0
      vertex -2.58885 1.88091 0
    endloop
  endfacet
  facet normal 0 0 -1
    outer loop
      vertex -3.17477 -0.401066 0
      vertex -1.68659 -0.213066 0
      vertex -3.09947 -0.795807 0
    endloop
  endfacet
  facet normal 0 0 -1
    outer loop
      vertex -1.58062 0.625812 0
      vertex -2.97528 1.178 0
      vertex -2.80418 1.54161 0
    endloop
  endfacet
  facet normal -0 0 -1
    outer loop
      vertex -1.68659 -0.213066 0
      vertex -3.17477 -0.401066 0
      vertex -1.7 0 0
    endloop
  endfacet
  facet normal 0 0 -1
    outer loop
      vertex -1.64659 0.422772 0
      vertex -3.09947 0.795807 0
      vertex -2.97528 1.178 0
    endloop
  endfacet
  facet normal 0 0 -1
    outer loop
      vertex -3.2 0 0
      vertex -1.7 0 0
      vertex -3.17477 -0.401066 0
    endloop
  endfacet
  facet normal 0 0 -1
    outer loop
      vertex -1.68659 0.213066 0
      vertex -3.17477 0.401066 0
      vertex -3.09947 0.795807 0
    endloop
  endfacet
  facet normal 0 0 -1
    outer loop
      vertex -1.7 0 0
      vertex -3.2 0 0
      vertex -3.17477 0.401066 0
    endloop
  endfacet
  facet normal 0.998025 -0.062814 0
    outer loop
      vertex -1.7 0 2.5
      vertex -1.68659 0.213066 0
      vertex -1.68659 0.213066 2.5
    endloop
  endfacet
  facet normal 0.998025 -0.062814 0
    outer loop
      vertex -1.68659 0.213066 0
      vertex -1.7 0 2.5
      vertex -1.7 0 0
    endloop
  endfacet
  facet normal -0.98229 -0.187365 0
    outer loop
      vertex 1.68659 0.213066 0
      vertex 1.64659 0.422772 2.5
      vertex 1.64659 0.422772 0
    endloop
  endfacet
  facet normal -0.98229 -0.187365 0
    outer loop
      vertex 1.64659 0.422772 2.5
      vertex 1.68659 0.213066 0
      vertex 1.68659 0.213066 2.5
    endloop
  endfacet
  facet normal -0.998025 -0.062814 0
    outer loop
      vertex 1.7 0 0
      vertex 1.68659 0.213066 2.5
      vertex 1.68659 0.213066 0
    endloop
  endfacet
  facet normal -0.998025 -0.062814 0
    outer loop
      vertex 1.68659 0.213066 2.5
      vertex 1.7 0 0
      vertex 1.7 0 2.5
    endloop
  endfacet
  facet normal -0.951059 -0.30901 0
    outer loop
      vertex 1.64659 0.422772 0
      vertex 1.58062 0.625812 2.5
      vertex 1.58062 0.625812 0
    endloop
  endfacet
  facet normal -0.951059 -0.30901 0
    outer loop
      vertex 1.58062 0.625812 2.5
      vertex 1.64659 0.422772 0
      vertex 1.64659 0.422772 2.5
    endloop
  endfacet
  facet normal 0.587801 -0.809005 0
    outer loop
      vertex -1.08362 1.30987 0
      vertex -0.910905 1.43536 2.5
      vertex -1.08362 1.30987 2.5
    endloop
  endfacet
  facet normal 0.587801 -0.809005 0
    outer loop
      vertex -0.910905 1.43536 2.5
      vertex -1.08362 1.30987 0
      vertex -0.910905 1.43536 0
    endloop
  endfacet
  facet normal 0.24868 0.968586 -0
    outer loop
      vertex -0.318548 -1.66989 0
      vertex -0.525329 -1.6168 2.5
      vertex -0.318548 -1.66989 2.5
    endloop
  endfacet
  facet normal 0.24868 0.968586 0
    outer loop
      vertex -0.525329 -1.6168 2.5
      vertex -0.318548 -1.66989 0
      vertex -0.525329 -1.6168 0
    endloop
  endfacet
  facet normal 0.481761 0.876303 -0
    outer loop
      vertex -0.723825 -1.53821 0
      vertex -0.910905 -1.43536 2.5
      vertex -0.723825 -1.53821 2.5
    endloop
  endfacet
  facet normal 0.481761 0.876303 0
    outer loop
      vertex -0.910905 -1.43536 2.5
      vertex -0.723825 -1.53821 0
      vertex -0.910905 -1.43536 0
    endloop
  endfacet
  facet normal 0.951059 0.30901 0
    outer loop
      vertex -1.58062 -0.625812 2.5
      vertex -1.64659 -0.422772 0
      vertex -1.64659 -0.422772 2.5
    endloop
  endfacet
  facet normal 0.951059 0.30901 0
    outer loop
      vertex -1.64659 -0.422772 0
      vertex -1.58062 -0.625812 2.5
      vertex -1.58062 -0.625812 0
    endloop
  endfacet
  facet normal 0 -1 0
    outer loop
      vertex -0.106744 1.69664 0
      vertex 0.106744 1.69664 2.5
      vertex -0.106744 1.69664 2.5
    endloop
  endfacet
  facet normal 0 -1 -0
    outer loop
      vertex 0.106744 1.69664 2.5
      vertex -0.106744 1.69664 0
      vertex 0.106744 1.69664 0
    endloop
  endfacet
  facet normal -0.904824 -0.425785 0
    outer loop
      vertex 1.58062 0.625812 0
      vertex 1.48972 0.818981 2.5
      vertex 1.48972 0.818981 0
    endloop
  endfacet
  facet normal -0.904824 -0.425785 0
    outer loop
      vertex 1.48972 0.818981 2.5
      vertex 1.58062 0.625812 0
      vertex 1.58062 0.625812 2.5
    endloop
  endfacet
  facet normal -0.77052 -0.637416 0
    outer loop
      vertex 1.37533 0.999234 0
      vertex 1.23925 1.16373 2.5
      vertex 1.23925 1.16373 0
    endloop
  endfacet
  facet normal -0.77052 -0.637416 0
    outer loop
      vertex 1.23925 1.16373 2.5
      vertex 1.37533 0.999234 0
      vertex 1.37533 0.999234 2.5
    endloop
  endfacet
  facet normal 0 1 -0
    outer loop
      vertex 0.106744 -1.69664 0
      vertex -0.106744 -1.69664 2.5
      vertex 0.106744 -1.69664 2.5
    endloop
  endfacet
  facet normal 0 1 0
    outer loop
      vertex -0.106744 -1.69664 2.5
      vertex 0.106744 -1.69664 0
      vertex -0.106744 -1.69664 0
    endloop
  endfacet
  facet normal -0.587801 -0.809005 0
    outer loop
      vertex 0.910905 1.43536 0
      vertex 1.08362 1.30987 2.5
      vertex 0.910905 1.43536 2.5
    endloop
  endfacet
  facet normal -0.587801 -0.809005 -0
    outer loop
      vertex 1.08362 1.30987 2.5
      vertex 0.910905 1.43536 0
      vertex 1.08362 1.30987 0
    endloop
  endfacet
  facet normal -0.125301 0.992119 0
    outer loop
      vertex 0.318548 -1.66989 0
      vertex 0.106744 -1.69664 2.5
      vertex 0.318548 -1.66989 2.5
    endloop
  endfacet
  facet normal -0.125301 0.992119 0
    outer loop
      vertex 0.106744 -1.69664 2.5
      vertex 0.318548 -1.66989 0
      vertex 0.106744 -1.69664 0
    endloop
  endfacet
  facet normal 0.998025 0.062814 0
    outer loop
      vertex -1.68659 -0.213066 2.5
      vertex -1.7 0 0
      vertex -1.7 0 2.5
    endloop
  endfacet
  facet normal 0.998025 0.062814 0
    outer loop
      vertex -1.7 0 0
      vertex -1.68659 -0.213066 2.5
      vertex -1.68659 -0.213066 0
    endloop
  endfacet
  facet normal -0.24868 0.968586 0
    outer loop
      vertex 0.525329 -1.6168 0
      vertex 0.318548 -1.66989 2.5
      vertex 0.525329 -1.6168 2.5
    endloop
  endfacet
  facet normal -0.24868 0.968586 0
    outer loop
      vertex 0.318548 -1.66989 2.5
      vertex 0.525329 -1.6168 0
      vertex 0.318548 -1.66989 0
    endloop
  endfacet
  facet normal -0.98229 0.187365 0
    outer loop
      vertex 1.64659 -0.422772 0
      vertex 1.68659 -0.213066 2.5
      vertex 1.68659 -0.213066 0
    endloop
  endfacet
  facet normal -0.98229 0.187365 0
    outer loop
      vertex 1.68659 -0.213066 2.5
      vertex 1.64659 -0.422772 0
      vertex 1.64659 -0.422772 2.5
    endloop
  endfacet
  facet normal 0.951059 -0.30901 0
    outer loop
      vertex -1.64659 0.422772 2.5
      vertex -1.58062 0.625812 0
      vertex -1.58062 0.625812 2.5
    endloop
  endfacet
  facet normal 0.951059 -0.30901 0
    outer loop
      vertex -1.58062 0.625812 0
      vertex -1.64659 0.422772 2.5
      vertex -1.64659 0.422772 0
    endloop
  endfacet
  facet normal -0.684531 -0.728983 0
    outer loop
      vertex 1.08362 1.30987 0
      vertex 1.23925 1.16373 2.5
      vertex 1.08362 1.30987 2.5
    endloop
  endfacet
  facet normal -0.684531 -0.728983 -0
    outer loop
      vertex 1.23925 1.16373 2.5
      vertex 1.08362 1.30987 0
      vertex 1.23925 1.16373 0
    endloop
  endfacet
  facet normal -0.481761 0.876303 0
    outer loop
      vertex 0.910905 -1.43536 0
      vertex 0.723825 -1.53821 2.5
      vertex 0.910905 -1.43536 2.5
    endloop
  endfacet
  facet normal -0.481761 0.876303 0
    outer loop
      vertex 0.723825 -1.53821 2.5
      vertex 0.910905 -1.43536 0
      vertex 0.723825 -1.53821 0
    endloop
  endfacet
  facet normal 0.481761 -0.876303 0
    outer loop
      vertex -0.910905 1.43536 0
      vertex -0.723825 1.53821 2.5
      vertex -0.910905 1.43536 2.5
    endloop
  endfacet
  facet normal 0.481761 -0.876303 0
    outer loop
      vertex -0.723825 1.53821 2.5
      vertex -0.910905 1.43536 0
      vertex -0.723825 1.53821 0
    endloop
  endfacet
  facet normal 0.844332 0.53582 0
    outer loop
      vertex -1.37533 -0.999234 2.5
      vertex -1.48972 -0.818981 0
      vertex -1.48972 -0.818981 2.5
    endloop
  endfacet
  facet normal 0.844332 0.53582 0
    outer loop
      vertex -1.48972 -0.818981 0
      vertex -1.37533 -0.999234 2.5
      vertex -1.37533 -0.999234 0
    endloop
  endfacet
  facet normal -0.904824 0.425785 0
    outer loop
      vertex 1.48972 -0.818981 0
      vertex 1.58062 -0.625812 2.5
      vertex 1.58062 -0.625812 0
    endloop
  endfacet
  facet normal -0.904824 0.425785 0
    outer loop
      vertex 1.58062 -0.625812 2.5
      vertex 1.48972 -0.818981 0
      vertex 1.48972 -0.818981 2.5
    endloop
  endfacet
  facet normal -0.368124 -0.929777 0
    outer loop
      vertex 0.525329 1.6168 0
      vertex 0.723825 1.53821 2.5
      vertex 0.525329 1.6168 2.5
    endloop
  endfacet
  facet normal -0.368124 -0.929777 -0
    outer loop
      vertex 0.723825 1.53821 2.5
      vertex 0.525329 1.6168 0
      vertex 0.723825 1.53821 0
    endloop
  endfacet
  facet normal 0.587801 0.809005 -0
    outer loop
      vertex -0.910905 -1.43536 0
      vertex -1.08362 -1.30987 2.5
      vertex -0.910905 -1.43536 2.5
    endloop
  endfacet
  facet normal 0.587801 0.809005 0
    outer loop
      vertex -1.08362 -1.30987 2.5
      vertex -0.910905 -1.43536 0
      vertex -1.08362 -1.30987 0
    endloop
  endfacet
  facet normal -0.684531 0.728983 0
    outer loop
      vertex 1.23925 -1.16373 0
      vertex 1.08362 -1.30987 2.5
      vertex 1.23925 -1.16373 2.5
    endloop
  endfacet
  facet normal -0.684531 0.728983 0
    outer loop
      vertex 1.08362 -1.30987 2.5
      vertex 1.23925 -1.16373 0
      vertex 1.08362 -1.30987 0
    endloop
  endfacet
  facet normal -0.998025 0.062814 0
    outer loop
      vertex 1.68659 -0.213066 0
      vertex 1.7 0 2.5
      vertex 1.7 0 0
    endloop
  endfacet
  facet normal -0.998025 0.062814 0
    outer loop
      vertex 1.7 0 2.5
      vertex 1.68659 -0.213066 0
      vertex 1.68659 -0.213066 2.5
    endloop
  endfacet
  facet normal -0.951059 0.30901 0
    outer loop
      vertex 1.58062 -0.625812 0
      vertex 1.64659 -0.422772 2.5
      vertex 1.64659 -0.422772 0
    endloop
  endfacet
  facet normal -0.951059 0.30901 0
    outer loop
      vertex 1.64659 -0.422772 2.5
      vertex 1.58062 -0.625812 0
      vertex 1.58062 -0.625812 2.5
    endloop
  endfacet
  facet normal -0.587801 0.809005 0
    outer loop
      vertex 1.08362 -1.30987 0
      vertex 0.910905 -1.43536 2.5
      vertex 1.08362 -1.30987 2.5
    endloop
  endfacet
  facet normal -0.587801 0.809005 0
    outer loop
      vertex 0.910905 -1.43536 2.5
      vertex 1.08362 -1.30987 0
      vertex 0.910905 -1.43536 0
    endloop
  endfacet
  facet normal 0.98229 0.187365 0
    outer loop
      vertex -1.64659 -0.422772 2.5
      vertex -1.68659 -0.213066 0
      vertex -1.68659 -0.213066 2.5
    endloop
  endfacet
  facet normal 0.98229 0.187365 0
    outer loop
      vertex -1.68659 -0.213066 0
      vertex -1.64659 -0.422772 2.5
      vertex -1.64659 -0.422772 0
    endloop
  endfacet
  facet normal -0.481761 -0.876303 0
    outer loop
      vertex 0.723825 1.53821 0
      vertex 0.910905 1.43536 2.5
      vertex 0.723825 1.53821 2.5
    endloop
  endfacet
  facet normal -0.481761 -0.876303 -0
    outer loop
      vertex 0.910905 1.43536 2.5
      vertex 0.723825 1.53821 0
      vertex 0.910905 1.43536 0
    endloop
  endfacet
  facet normal -0.844332 0.53582 0
    outer loop
      vertex 1.37533 -0.999234 0
      vertex 1.48972 -0.818981 2.5
      vertex 1.48972 -0.818981 0
    endloop
  endfacet
  facet normal -0.844332 0.53582 0
    outer loop
      vertex 1.48972 -0.818981 2.5
      vertex 1.37533 -0.999234 0
      vertex 1.37533 -0.999234 2.5
    endloop
  endfacet
  facet normal 0.368124 -0.929777 0
    outer loop
      vertex -0.723825 1.53821 0
      vertex -0.525329 1.6168 2.5
      vertex -0.723825 1.53821 2.5
    endloop
  endfacet
  facet normal 0.368124 -0.929777 0
    outer loop
      vertex -0.525329 1.6168 2.5
      vertex -0.723825 1.53821 0
      vertex -0.525329 1.6168 0
    endloop
  endfacet
  facet normal -0.77052 0.637416 0
    outer loop
      vertex 1.23925 -1.16373 0
      vertex 1.37533 -0.999234 2.5
      vertex 1.37533 -0.999234 0
    endloop
  endfacet
  facet normal -0.77052 0.637416 0
    outer loop
      vertex 1.37533 -0.999234 2.5
      vertex 1.23925 -1.16373 0
      vertex 1.23925 -1.16373 2.5
    endloop
  endfacet
  facet normal 0.98229 -0.187365 0
    outer loop
      vertex -1.68659 0.213066 2.5
      vertex -1.64659 0.422772 0
      vertex -1.64659 0.422772 2.5
    endloop
  endfacet
  facet normal 0.98229 -0.187365 0
    outer loop
      vertex -1.64659 0.422772 0
      vertex -1.68659 0.213066 2.5
      vertex -1.68659 0.213066 0
    endloop
  endfacet
  facet normal 0.904824 0.425785 0
    outer loop
      vertex -1.48972 -0.818981 2.5
      vertex -1.58062 -0.625812 0
      vertex -1.58062 -0.625812 2.5
    endloop
  endfacet
  facet normal 0.904824 0.425785 0
    outer loop
      vertex -1.58062 -0.625812 0
      vertex -1.48972 -0.818981 2.5
      vertex -1.48972 -0.818981 0
    endloop
  endfacet
  facet normal -0.368124 0.929777 0
    outer loop
      vertex 0.723825 -1.53821 0
      vertex 0.525329 -1.6168 2.5
      vertex 0.723825 -1.53821 2.5
    endloop
  endfacet
  facet normal -0.368124 0.929777 0
    outer loop
      vertex 0.525329 -1.6168 2.5
      vertex 0.723825 -1.53821 0
      vertex 0.525329 -1.6168 0
    endloop
  endfacet
  facet normal 0.904824 -0.425785 0
    outer loop
      vertex -1.58062 0.625812 2.5
      vertex -1.48972 0.818981 0
      vertex -1.48972 0.818981 2.5
    endloop
  endfacet
  facet normal 0.904824 -0.425785 0
    outer loop
      vertex -1.48972 0.818981 0
      vertex -1.58062 0.625812 2.5
      vertex -1.58062 0.625812 0
    endloop
  endfacet
  facet normal 0.684531 -0.728983 0
    outer loop
      vertex -1.23925 1.16373 0
      vertex -1.08362 1.30987 2.5
      vertex -1.23925 1.16373 2.5
    endloop
  endfacet
  facet normal 0.684531 -0.728983 0
    outer loop
      vertex -1.08362 1.30987 2.5
      vertex -1.23925 1.16373 0
      vertex -1.08362 1.30987 0
    endloop
  endfacet
  facet normal -0.125301 -0.992119 0
    outer loop
      vertex 0.106744 1.69664 0
      vertex 0.318548 1.66989 2.5
      vertex 0.106744 1.69664 2.5
    endloop
  endfacet
  facet normal -0.125301 -0.992119 -0
    outer loop
      vertex 0.318548 1.66989 2.5
      vertex 0.106744 1.69664 0
      vertex 0.318548 1.66989 0
    endloop
  endfacet
  facet normal -0.844332 -0.53582 0
    outer loop
      vertex 1.48972 0.818981 0
      vertex 1.37533 0.999234 2.5
      vertex 1.37533 0.999234 0
    endloop
  endfacet
  facet normal -0.844332 -0.53582 0
    outer loop
      vertex 1.37533 0.999234 2.5
      vertex 1.48972 0.818981 0
      vertex 1.48972 0.818981 2.5
    endloop
  endfacet
  facet normal 0.684531 0.728983 -0
    outer loop
      vertex -1.08362 -1.30987 0
      vertex -1.23925 -1.16373 2.5
      vertex -1.08362 -1.30987 2.5
    endloop
  endfacet
  facet normal 0.684531 0.728983 0
    outer loop
      vertex -1.23925 -1.16373 2.5
      vertex -1.08362 -1.30987 0
      vertex -1.23925 -1.16373 0
    endloop
  endfacet
  facet normal 0.125301 -0.992119 0
    outer loop
      vertex -0.318548 1.66989 0
      vertex -0.106744 1.69664 2.5
      vertex -0.318548 1.66989 2.5
    endloop
  endfacet
  facet normal 0.125301 -0.992119 0
    outer loop
      vertex -0.106744 1.69664 2.5
      vertex -0.318548 1.66989 0
      vertex -0.106744 1.69664 0
    endloop
  endfacet
  facet normal 0.24868 -0.968586 0
    outer loop
      vertex -0.525329 1.6168 0
      vertex -0.318548 1.66989 2.5
      vertex -0.525329 1.6168 2.5
    endloop
  endfacet
  facet normal 0.24868 -0.968586 0
    outer loop
      vertex -0.318548 1.66989 2.5
      vertex -0.525329 1.6168 0
      vertex -0.318548 1.66989 0
    endloop
  endfacet
  facet normal 0.77052 0.637416 0
    outer loop
      vertex -1.23925 -1.16373 2.5
      vertex -1.37533 -0.999234 0
      vertex -1.37533 -0.999234 2.5
    endloop
  endfacet
  facet normal 0.77052 0.637416 0
    outer loop
      vertex -1.37533 -0.999234 0
      vertex -1.23925 -1.16373 2.5
      vertex -1.23925 -1.16373 0
    endloop
  endfacet
  facet normal 0.368124 0.929777 -0
    outer loop
      vertex -0.525329 -1.6168 0
      vertex -0.723825 -1.53821 2.5
      vertex -0.525329 -1.6168 2.5
    endloop
  endfacet
  facet normal 0.368124 0.929777 0
    outer loop
      vertex -0.723825 -1.53821 2.5
      vertex -0.525329 -1.6168 0
      vertex -0.723825 -1.53821 0
    endloop
  endfacet
  facet normal 0.844332 -0.53582 0
    outer loop
      vertex -1.48972 0.818981 2.5
      vertex -1.37533 0.999234 0
      vertex -1.37533 0.999234 2.5
    endloop
  endfacet
  facet normal 0.844332 -0.53582 0
    outer loop
      vertex -1.37533 0.999234 0
      vertex -1.48972 0.818981 2.5
      vertex -1.48972 0.818981 0
    endloop
  endfacet
  facet normal 0.125301 0.992119 -0
    outer loop
      vertex -0.106744 -1.69664 0
      vertex -0.318548 -1.66989 2.5
      vertex -0.106744 -1.69664 2.5
    endloop
  endfacet
  facet normal 0.125301 0.992119 0
    outer loop
      vertex -0.318548 -1.66989 2.5
      vertex -0.106744 -1.69664 0
      vertex -0.318548 -1.66989 0
    endloop
  endfacet
  facet normal 0.77052 -0.637416 0
    outer loop
      vertex -1.37533 0.999234 2.5
      vertex -1.23925 1.16373 0
      vertex -1.23925 1.16373 2.5
    endloop
  endfacet
  facet normal 0.77052 -0.637416 0
    outer loop
      vertex -1.23925 1.16373 0
      vertex -1.37533 0.999234 2.5
      vertex -1.37533 0.999234 0
    endloop
  endfacet
  facet normal -0.24868 -0.968586 0
    outer loop
      vertex 0.318548 1.66989 0
      vertex 0.525329 1.6168 2.5
      vertex 0.318548 1.66989 2.5
    endloop
  endfacet
  facet normal -0.24868 -0.968586 -0
    outer loop
      vertex 0.525329 1.6168 2.5
      vertex 0.318548 1.66989 0
      vertex 0.525329 1.6168 0
    endloop
  endfacet
endsolid OpenSCAD_Model
